<?xml version="1.0" encoding="UTF-8"?>
<svg width="821px" height="600px" viewBox="0 0 821 600" version="1.1" xmlns="http://www.w3.org/2000/svg" xmlns:xlink="http://www.w3.org/1999/xlink">
    <!-- Generator: Sketch 59.1 (86144) - https://sketch.com -->
    <title>meeting</title>
    <desc>Created with Sketch.</desc>
    <defs>
        <polygon id="path-1" points="0 548 818 548 818 0 0 0"></polygon>
    </defs>
    <g id="meeting" stroke="none" stroke-width="1" fill="none" fill-rule="evenodd">
        <g id="Group-219" transform="translate(3.000000, 26.000000)">
            <path d="M54.2688687,522 L773.611856,522 C800.586904,499.500476 818,463.974764 818,423.994013 C818,355.973415 767.611119,300.831551 705.453198,300.831551 C703.13443,300.831551 700.834508,300.917507 698.549942,301.068455 C704.063473,280.962423 707.023008,259.798362 707.023008,237.939665 C707.023008,106.528915 600.619336,0 469.364642,0 C373.064572,0 290.145232,57.3452741 252.80832,139.787623 C231.88636,177.912981 226.4531,213.232538 225.567333,220.0035 C205.599544,209.987172 183.392558,204.396534 159.990591,204.396534 C75.7848303,204.396534 7.00983554,276.681391 2.6466149,367.638981 C-6.95302889,424.950711 9.40608197,485.614728 54.2688687,522" id="Fill-1" fill="#EAF2FF"></path>
            <path d="M662,228.628479 C662,236.565219 656.235285,243 649.127098,243 L309.8736,243 C302.76332,243 297,236.565219 297,228.628479 L297,93.3715211 C297,85.4347811 302.76332,79 309.8736,79 L649.127098,79 C656.235285,79 662,85.4347811 662,93.3715211 L662,228.628479 Z" id="Fill-3" fill="#FFFFFF"></path>
            <path d="M253.079545,490.458333 C253.079545,494.485417 251.476591,497.75 249.5,497.75 C247.523409,497.75 245.920455,494.485417 245.920455,490.458333 L245.920455,417.541667 C245.920455,413.514583 247.523409,410.25 249.5,410.25 C251.476591,410.25 253.079545,413.514583 253.079545,417.541667 L253.079545,490.458333 Z M249.5,404 C245.357955,404 242,407.73125 242,412.333333 L242,495.666667 C242,500.26875 245.357955,504 249.5,504 C253.642045,504 257,500.26875 257,495.666667 L257,412.333333 C257,407.73125 253.642045,404 249.5,404 L249.5,404 Z" id="Fill-5" fill="#777777"></path>
            <path d="M329.079545,490.458333 C329.079545,494.485417 327.476591,497.75 325.5,497.75 C323.523409,497.75 321.920455,494.485417 321.920455,490.458333 L321.920455,417.541667 C321.920455,413.514583 323.523409,410.25 325.5,410.25 C327.476591,410.25 329.079545,413.514583 329.079545,417.541667 L329.079545,490.458333 Z M325.5,404 C321.357955,404 318,407.73125 318,412.333333 L318,495.666667 C318,500.26875 321.357955,504 325.5,504 C329.642045,504 333,500.26875 333,495.666667 L333,412.333333 C333,407.73125 329.642045,404 325.5,404 L325.5,404 Z" id="Fill-7" fill="#777777"></path>
            <path d="M333.928463,408 L239.848668,408 C239.848668,408 231,407.538471 231,398.760403 L231,358.567151 C231,358.567151 235.656973,346.554912 268.258578,345.168938 C300.86158,343.782964 319.956147,350.713528 319.956147,373.812867 C319.956147,373.812867 338.818774,372.657658 338.818774,383.976909 C338.818774,395.29616 340.449343,408 333.928463,408" id="Fill-9" fill="#D68F54"></path>
            <path d="M303.835505,501.384732 C303.102176,497.28013 301.706576,490.182194 301.706576,490.182194 L302.030124,465 L287,465 L292.624482,489.103218 C292.74038,490.220804 293.047371,494.564086 291.468956,499.169215 C291.468956,499.169215 290.025065,505.862097 296.502223,505.985649 C302.98007,506.110605 304.568143,505.48793 303.835505,501.384732" id="Fill-11" fill="#FD6062"></path>
            <path d="M291.736915,500.165924 C291.736915,500.165924 290.490878,507.919456 291.239346,511.172648 C291.239346,511.172648 293.371281,518 298.179235,518 C302.736291,518 304.995085,511.172648 304.995085,511.172648 C304.995085,511.172648 305.135334,502.830903 303.917489,500 C303.917489,500 299.227936,506.790631 291.736915,500.165924" id="Fill-13" fill="#231B41"></path>
            <polygon id="Fill-15" fill="#FD6062" points="338 464.458584 340.160924 470 351 463.861446 348.744673 460"></polygon>
            <path d="M345.105217,480 L354.0338,476.225296 L353.734309,474.358579 C353.734309,474.358579 360.529017,474.974169 365.265416,473.718915 C370.001815,472.464348 379.265246,468.297593 378.994179,467.664807 C378.721725,467.032021 380.178972,466.915094 369.895052,465.780206 C359.611132,464.646007 352.525252,462 352.525252,462 L340,468.70065 L345.105217,480 Z" id="Fill-17" fill="#231B41"></path>
            <path d="M284.695652,411 L284,489.956522 L307.304348,491 C307.304348,491 316,420.73913 316,419.695652 L310.434783,411 L284.695652,411 Z" id="Fill-19" fill="#231B41"></path>
            <path d="M285,420.631088 L303.290014,421.107171 C303.290014,421.107171 310.903639,430.470593 314.217167,435 C315.26076,426.291801 316,420.019082 316,419.713078 L310.50379,411 L285.083817,411 L285,420.631088 Z" id="Fill-21" fill="#131026"></path>
            <path d="M332.4,381.73994 C341.109677,388.355399 354,459.036359 354,459.036359 L335.883871,466 L310.8,410.290869 C310.8,410.290869 265.858065,411.683597 259.935484,407.853595 C254.012903,404.023592 250.529032,391.489038 250.529032,391.489038 L246,368.160839 L289.432026,367 C289.432026,367 289.971329,373.354323 298.258065,375.472662 C308.569626,378.108401 327.570658,378.071493 332.4,381.73994" id="Fill-23" fill="#231B41"></path>
            <path d="M234,368 C234,368 239.683631,401.029388 248.564304,402.767777 C257.444977,404.506166 272.364508,396.161899 274.851096,388.512988 C277.337685,380.864077 276.982458,368.347678 276.982458,368.347678 L234,368 Z" id="Fill-25" fill="#3E3F62"></path>
            <path d="M286,367 C286,367 289.241398,374.062872 302.926432,376.585727 C311.804056,378.22204 315,377.988482 315,377.988482 L314.28979,367.11713 L286,367 Z" id="Fill-27" fill="#3E3F62"></path>
            <path d="M277.708185,273 C277.708185,273 250.156584,280.369544 243.530249,290.897463 C236.903915,301.425383 224,328.447043 224,337.220309 C224,345.993575 230.975089,350.555674 238.298932,351.608466 C245.622776,352.661258 322,351.257535 322,351.257535 C322,351.257535 322,301.776313 317.466192,294.7577 C312.932384,287.739087 312.234875,276.860237 277.708185,273" id="Fill-29" fill="#3E3F62"></path>
            <path d="M278.145622,335.635423 C278.145622,335.635423 290.461961,334.019953 293.523878,335.94067 C296.5851,337.862803 302.948947,347.064112 298.428909,346.999663 C293.908872,346.934506 291.091132,344.36576 289.198071,344.803445 C287.305704,345.242547 285.549299,346.636342 278.268404,344.071137 C270.986815,341.503807 278.145622,335.635423 278.145622,335.635423" id="Fill-31" fill="#FD6062"></path>
            <path d="M272.704237,333.037571 L272,347.766442 L277.399382,348 C277.399382,348 278.338129,334.206062 277.868403,333.504687 C277.399382,332.803312 272.704237,333.037571 272.704237,333.037571" id="Fill-33" fill="#FFFFFF"></path>
            <path d="M277.912327,273.009879 C277.912327,273.009879 267.933971,284.901215 269.093807,300.290003 C270.25434,315.678791 280.928878,332 280.928878,332 C280.928878,332 296.709204,313.58032 298.333393,302.621405 C299.958278,291.662489 298.101565,276.740261 298.101565,276.740261 C298.101565,276.740261 282.553763,272.776949 277.912327,273.009879" id="Fill-35" fill="#E8E8E8"></path>
            <path d="M279.838152,335 C278.444212,333.376664 270.545455,323.63456 265.433879,313.893152 C260.323,304.151745 258.929061,298.121117 258.929061,298.121117 L264.504818,294.642043 L258,290.467154 C258,290.467154 266.363636,278.174889 268.686636,276.319847 C271.009636,274.464109 277.979333,274 277.979333,274 C277.979333,274 269.151515,284.437223 269.383606,297.425303 C269.615697,310.414078 281,332.680153 281,332.680153 L279.838152,335 Z" id="Fill-37" fill="#231B41"></path>
            <path d="M280,335 C280,335 287.412213,329.833518 295.287211,319.971129 C304.385882,308.576549 306.17379,302.829594 306.17379,302.829594 L302.004551,299.542601 L307.79493,298.602857 C307.79493,298.602857 308.721196,294.611407 306.636576,288.271301 C304.605461,282.093219 301.54107,277.93904 301.54107,277.93904 L298.298097,277 C298.298097,277 300.614804,300.480937 296.676958,308.699829 C292.739111,316.91872 281.158354,332.651343 281.158354,332.651343 L280,335 Z" id="Fill-39" fill="#231B41"></path>
            <polygon id="Fill-41" fill="#FFFFFF" points="274 280.818182 276.808451 289 285 283.317727 278.212676 274"></polygon>
            <path d="M298.53549,277 L286,282.96754 L291.571329,291 L299,285.262431 C299,285.262431 299,279.983426 298.53549,277" id="Fill-43" fill="#FFFFFF"></path>
            <polygon id="Fill-45" fill="#231B41" points="279.490745 287.160358 281.075395 289.703723 277 323.448385 281.302258 332 287.188487 323.448385 285.830022 290.165523 289 287.623544 284.924605 283"></polygon>
            <polygon id="Fill-47" fill="#FD6062" points="278 273.793709 282.827586 262 297.310345 267.443355 298 277.422386 285.126207 284"></polygon>
            <path d="M279,270.591704 C280.182535,274.461417 284.244047,281.188293 298,276.265611 L297.345185,266.574952 L282.839786,261 L279,270.591704 Z" id="Fill-49" fill="#AB2A41"></path>
            <path d="M311.739443,251.6772 C310.087086,265.169502 299.676685,274.723356 291.508768,273.956985 C281.956984,273.061028 275.609145,260.868073 277.261502,247.375771 C278.913169,233.883469 287.970763,223.908111 297.491487,225.095985 C307.012901,226.28386 313.3918,238.184898 311.739443,251.6772" id="Fill-51" fill="#FD6062"></path>
            <path d="M286,261 C286,261 286.727771,267.098482 292.321109,267.930093 C296.865877,268.6062 300,264.15539 300,264.15539 C300,264.15539 289.552682,264.605677 286,261" id="Fill-53" fill="#FFFFFF"></path>
            <path d="M278.425764,246.502038 C278.425764,246.502038 272.300585,244.040514 273.066232,250.018501 C273.83188,255.996487 275.93741,259.688773 279,257.227249" id="Fill-55" fill="#FD6062"></path>
            <path d="M279.491606,248.911198 C279.650175,250.539473 279.677539,252 279.677539,252 L281.538268,252 C281.538268,252 282.839796,244.3688 284.32866,241.825529 C285.816822,239.281565 291.211674,235.103086 295.118363,235.647924 C299.025053,236.192762 307.396229,241.279998 312.233283,239.281565 C317.070337,237.283132 318,231.468753 318,231.468753 C318,231.468753 316.325905,233.649491 313.535513,230.560689 C310.744419,227.471887 303.675472,220.749444 294.746498,222.203038 C285.816822,223.65594 278.747174,226.56313 276.701214,234.375942 C274.654552,242.188755 275.026417,246.549539 275.026417,246.549539 C275.026417,246.549539 279.119741,245.095944 279.491606,248.911198" id="Fill-57" fill="#231B41"></path>
            <path d="M648,214.082474 C648,220.664454 642.694407,226 636.149378,226 L323.850622,226 C317.305593,226 312,220.664454 312,214.082474 L312,101.917526 C312,95.3355464 317.305593,90 323.850622,90 L636.149378,90 C642.694407,90 648,95.3355464 648,101.917526 L648,214.082474 Z" id="Fill-59" fill="#CECECE"></path>
            <path d="M493,509 L492.994466,506.369813 C492.994466,506.369813 481.020752,492.858109 477.343555,485.981648 L467.234724,467 L454,470.326412 L470.797786,494.527645 L493,509 Z" id="Fill-61" fill="#FD6062"></path>
            <path d="M419.218717,162.4086 C421.552741,152.764919 418.168022,148.273794 415.114439,145.881987 C413.664843,142.332855 412.012653,139.774112 410.32204,138.809674 C407.239117,137.050539 403.544219,136.858353 400.958699,137.011961 C401.625862,136.322476 402.933642,136.071371 402.933642,136.071371 C401.331751,135.831489 397.754917,137.427196 397.754917,137.427196 C375.463275,128.804066 371.959794,161.757692 372.427856,169.414279 C372.892426,177.068762 372.831647,186.085382 361.233483,192.117505 C339.105313,203.627636 368.58765,247 368.58765,247 C368.025975,240.813567 396.456917,208.163652 411.290301,198.386002 C414.901366,193.048977 416.184695,183.619928 416.281801,182.877836 C415.657252,190.35346 414.383703,194.547188 413.244985,196.908132 C420.00604,190.660677 421.007833,175.658929 419.218717,162.4086" id="Fill-63" fill="#231B41"></path>
            <path d="M409.999436,199.307628 C410.073482,199.341688 402.837926,203.157906 397.395542,201.645753 C392.275886,200.227267 388.930541,193.484668 389.001095,193.469057 C391.170085,193.032654 391.794587,190.005509 391.748483,177 L392.729243,177.196559 L409.209379,180.5118 C409.209379,180.5118 408.83356,185.779854 408.823082,190.742782 C408.811905,194.91025 409.060588,198.86271 409.999436,199.307628" id="Fill-65" fill="#FD6062"></path>
            <path d="M410,180.426296 C410,180.426296 409.612326,185.870822 409.601517,191 C400.089098,190.727187 395.060868,181.895233 393,177 L410,180.426296 Z" id="Fill-67" fill="#AB2A41"></path>
            <path d="M475,479.444959 L466.222202,479.711685 L456.720701,480 C456.720701,480 434.772346,455.757195 422.462371,416.893913 C422.174575,415.991363 421.872739,415.075581 421.551951,414.151442 C414.814702,394.659561 400.846036,370.195298 393.486865,348.050783 C392.31462,344.524152 391.263109,341.203658 390.318996,338.06075 C390.017862,337.055131 389.722344,336.065529 389.442971,335.092641 C384.018355,316.393974 382.447407,304.11762 381,291 L434.150425,291.423419 C434.150425,291.423419 442.730275,380.992472 475,479.444959" id="Fill-69" fill="#2A4E96"></path>
            <path d="M426.416606,260.756028 C426.284633,286.00212 430.067619,296.833184 430.067619,296.833184 C430.067619,296.833184 407.667507,308.374735 381.04427,299.879027 C380.730575,299.779531 359,294.750072 359,294.750072 C359.445667,293.727784 363.40761,276.713946 363.841531,275.77644 C369.46246,263.536314 373.730497,258.169129 374.397961,254.405092 C375.634773,247.380105 375.661029,240.109881 375.044696,233.253757 C373.420949,215.104122 368.589091,200.037465 368.589091,200.037465 C375.844133,198.363548 382.636924,195.423508 390.187003,192.551433 C391.923376,194.744552 397.233376,197.039269 401.837908,196.934167 C407.141689,196.815753 408.860788,194.513328 408.585788,192 C414.23781,195.188781 418.7463,198.201692 418.7463,198.201692 C423.549828,206.662366 433.29093,214.877803 433.997087,227.856443 C434.171899,231.048026 426.42006,260.049045 426.416606,260.756028" id="Fill-71" fill="#E7F1FD"></path>
            <path d="M412.570738,184.999081 C412.570738,184.999081 390.265595,185.361314 390.249885,171.702477 C390.235603,158.044342 387.346325,148.891651 401.587053,148.083648 C415.827067,147.274943 418.599946,152.484493 419.733234,157.041885 C420.866523,161.599276 418.372146,184.55331 412.570738,184.999081" id="Fill-73" fill="#FD6062"></path>
            <path d="M411,147.751381 C411,147.751381 405.08663,163.633115 396.011212,165.981352 C386.936484,168.329589 383,165.882552 383,165.882552 C383,165.882552 389.961624,160.318449 391.404702,150.605446 C391.404702,150.605446 406.539389,140.192494 411,147.751381" id="Fill-75" fill="#231B41"></path>
            <path d="M410,149.603843 C410,149.603843 414.442017,153.168894 415.525046,156.635305 C416.60877,160.101015 417.09568,167.236714 419.162964,166.99396 C419.162964,166.99396 423.64463,156.140003 418.607886,149.999805 C413.267171,143.489529 410,149.603843 410,149.603843" id="Fill-77" fill="#231B41"></path>
            <path d="M395.835505,505.384732 C395.102176,501.28013 393.706576,494.182194 393.706576,494.182194 L394.030124,469 L379,469 L384.624482,493.103218 C384.74038,494.220804 385.047371,498.564086 383.468956,503.169215 C383.468956,503.169215 382.025065,509.862097 388.502223,509.985649 C394.98007,510.110605 396.568143,509.48793 395.835505,505.384732" id="Fill-79" fill="#FD6062"></path>
            <path d="M382.736915,503.16155 C382.736915,503.16155 381.490878,510.710726 382.239346,513.878175 C382.239346,513.878175 384.192269,514 389.000223,514 C393.557983,514 395.995085,513.878175 395.995085,513.878175 C395.995085,513.878175 396.135334,505.75629 394.917489,503 C394.917489,503 390.227936,509.611653 382.736915,503.16155" id="Fill-81" fill="#1E3D70"></path>
            <polygon id="Fill-83" fill="#FD6062" points="446.657116 277 457 308.627482 451.101198 311 434 283.056461"></polygon>
            <path d="M434,284 L444.383239,301 C445.579533,300.673657 447,299.960616 447,299.960616 L440.947301,284.75515 L434,284 Z" id="Fill-85" fill="#AB2A41"></path>
            <path d="M501,513.890254 C501,513.890254 487.81238,514.137182 485.58191,513.890254 C483.350741,513.646795 481.627513,509.640464 479.210238,504.846879 C478.221639,502.886718 476.002363,501.806756 473.726416,501.21302 L473.832062,513.890254 L470.487057,513.890254 L467.032907,500.515935 C464.887793,496.608098 466.515169,493.084525 468.024304,490 C469.780415,489.995849 474.848647,491.166674 483.795015,501.160999 C486.736325,504.441806 489.983381,505.614019 493.205948,505.514138 C493.250726,505.543963 493.295503,505.565466 493.34028,505.584887 C500.777513,508.902456 501,513.890254 501,513.890254" id="Fill-87" fill="#1E3D70"></path>
            <path d="M449,281.222958 C449,281.222958 447.419878,277.116289 445.318585,271.92855 C443.217985,266.74151 437.941221,216.229975 434.45637,208.699566 C430.972211,201.169857 418.933383,196.338976 418.933383,196.338976 L409,192 C409,192 421.506705,223.239091 421.875608,229.56108 C422.243818,235.883068 423.347758,332.943613 423.347758,332.943613 C423.347758,332.943613 422.610645,337.40644 431.072569,335.546579 C439.532417,333.687417 441.739605,331.827556 441.739605,331.827556 C441.739605,331.827556 438.666569,309.095686 436.824823,286.774553 C442.929369,286.393904 449,281.222958 449,281.222958" id="Fill-89" fill="#2A4E96"></path>
            <path d="M466,479.711302 L456.59493,480 C456.59493,480 434.869328,455.725692 422.684287,416.810093 C422.399411,415.906344 422.100639,414.990043 421.783107,414.06398 C415.114234,394.546209 401.287335,370.049451 394.002852,347.875523 C392.842505,344.344207 391.801666,341.019304 390.867134,337.872918 C390.568362,336.865266 390.276538,335.87435 390,334.90017 L397.747232,329 C397.747232,329 421.006994,366.803346 428.208098,402.379398 C434.463554,433.279803 459.516644,470.463914 466,479.711302" id="Fill-91" fill="#1E3D70"></path>
            <path d="M398.769385,405.580716 C398.903666,422.853139 398.022757,462.560218 395.750533,479 L387.321087,479 C382.662043,479 380.337091,478.933166 380.337091,478.933166 C374.639658,450.35117 370.584525,426.700274 367.633868,406.320068 C365.213302,389.596241 363.059892,375.258947 361.404936,362.914839 C359.738029,350.49415 358.580826,340.093798 358.16533,331.305818 C358.102056,329.921796 358.053546,328.575369 358.026831,327.26932 C358.001521,325.95631 357.993788,324.678805 358.005037,323.43959 L404,319 C403.421398,349.261897 398.694863,395.543079 398.769385,405.580716" id="Fill-93" fill="#2A4E96"></path>
            <path d="M387,479 C382.365846,479 380.053314,478.933028 380.053314,478.933028 C374.386318,450.29185 370.352849,426.591981 367.417955,406.169576 C365.01032,389.411121 362.868414,375.044139 361.2223,362.674471 C359.564997,350.228064 358.413277,339.806177 358,331 L374.787008,340.851923 C374.787008,340.851923 364.07328,344.621913 368.161993,373.171702 C372.248607,401.720793 381.309228,474.958632 387,479" id="Fill-95" fill="#1E3D70"></path>
            <path d="M389.369381,330.756693 C389.369381,330.756693 386.147645,342.349613 374.999517,340.869428 C363.852786,339.389244 348,332.729808 348,332.729808 C348,332.729808 352.764086,317.739984 358.687381,298.046432 C365.859379,274.20544 374.735933,243.471079 378.920414,224.085957 C380.094306,218.653974 380.896943,214.117341 381.194786,210.868038 L390.441895,193 C390.441895,193 404.232155,223.819301 404.975363,231.58992 C405.719271,239.360539 389.369381,330.756693 389.369381,330.756693" id="Fill-97" fill="#2A4E96"></path>
            <path d="M447,257.810244 L446.336381,260 L409.318013,248.190471 C409.318013,248.190471 408.824481,247.612827 409.067064,246.847878 C409.336834,246.002145 409.982329,246 409.982329,246 L447,257.810244 Z" id="Fill-99" fill="#A9453D"></path>
            <path d="M432.738294,248.86172 C429.242153,248.065432 420.907864,253.247592 420.907864,253.247592 C420.907864,253.247592 382.30505,255.289303 374.400341,256.217608 L378.276948,230.554773 L390.354336,193 C390.321823,193.016065 375.101091,197.573768 367.444032,201.479772 C367.444032,201.479772 362.658456,207.708982 359.698428,222.081986 C359.698428,222.081986 356.570302,256.589209 363.554282,269.210379 C363.554282,269.210379 385.613724,273.664704 420.907864,261.414437 C428.589135,261.440281 429.806627,259.567607 431.454393,258.541512 C433.102158,257.517514 436.572012,258.997632 440.858139,257.586665 C445.144266,256.175698 436.234434,249.659405 432.738294,248.86172" id="Fill-101" fill="#FD6062"></path>
            <path d="M439.718531,252 C439.98011,257.501344 432.313675,256.037403 432.313675,256.037403 C432.313675,256.037403 430.677579,257.460778 426.936931,258.646449 C423.196283,259.832833 420.859605,258.884153 420.859605,258.884153 L389.067601,265.526332 L380,270 C390.024152,269.498972 404.230761,267.457852 421.617693,261.39214 C429.404749,261.417761 430.639009,259.509726 432.309467,258.464257 C433.979925,257.420924 437.497565,258.929701 441.84272,257.491381 C444.321759,256.671517 442.445123,254.158548 439.718531,252" id="Fill-103" fill="#AB2A41"></path>
            <path d="M388.990174,247.798004 C388.494933,260.385597 385.542245,284.820992 359.21046,297.900386 C359.139612,297.933126 359.070153,297.970743 359,298 C366.125071,274.146964 374.943545,243.396178 379.100647,224 C383.93636,231.248837 389.259673,240.867514 388.990174,247.798004" id="Fill-105" fill="#1E3D70"></path>
            <path d="M389.700346,193 C389.700346,193 367.193276,194.589474 361.773053,206.69248 C356.350743,218.796184 354.627454,259.057975 361.526173,270.914195 C361.526173,270.914195 371.025125,273.626757 387.824061,270.477089 C388.030605,270.438747 388.23715,270.398313 388.445085,270.358576 C388.445085,270.358576 393.80411,257.20568 388.999347,254.611631 C388.999347,254.611631 374.831938,255.353385 376.310433,250.659557 C377.788929,245.967124 389.700346,193 389.700346,193" id="Fill-107" fill="#2A4E96"></path>
            <polygon id="Fill-109" fill="#A9453D" points="450 259.889687 447.595869 258 447 260"></polygon>
            <path d="M456.042363,308 C456.042363,308 465.213377,313.370666 466.419659,317.46487 C467.626622,321.556909 466.796793,330.126306 465.342038,329.998588 C463.885922,329.87087 461.71298,320.790598 460.506697,320.150563 C459.299734,319.51125 457.610803,317.59331 457.610803,318.999655 C457.610803,320.406 458.817766,322.963975 458.213944,323.348574 C457.610803,323.731729 455.680206,319.768851 454.353432,318.999655 C453.025296,318.231901 452.467765,311.907316 451.17775,310.210177 C449.887736,308.511595 456.042363,308 456.042363,308" id="Fill-111" fill="#FD6062"></path>
            <mask id="mask-2" fill="white">
                <use xlink:href="#path-1"></use>
            </mask>
            <g id="Clip-114"></g>
            <polygon id="Fill-113" fill="#543639" mask="url(#mask-2)" points="190 367 690 367 690 351 190 351"></polygon>
            <polygon id="Fill-115" fill="#2D1C1F" mask="url(#mask-2)" points="642 534 652 534 652 367 642 367"></polygon>
            <path d="M434,345.32641 C434,346.803547 432.899129,348 431.541435,348 L377.458565,348 C376.100871,348 375,346.803547 375,345.32641 L375,307.674299 C375,306.19787 376.100871,305 377.458565,305 L431.541435,305 C432.899129,305 434,306.19787 434,307.674299 L434,345.32641 Z" id="Fill-116" fill="#D7D7E6" mask="url(#mask-2)"></path>
            <path d="M434,345.325661 L434,307.662995 C434,306.227275 432.941549,305.06381 431.616197,305 C427.871831,306.632822 418.866197,310.72941 406.3,317.513809 C390.102817,326.258586 384.704225,346.81881 384,347.054906 L386.41831,348 L431.505634,348 C432.883099,348 434,346.803212 434,345.325661" id="Fill-117" fill="#9292A8" mask="url(#mask-2)"></path>
            <path d="M448,349 C448,350.104667 447.051695,351 445.880219,351 L377.119781,351 C375.948305,351 375,350.104667 375,349 C375,347.895333 375.948305,347 377.119781,347 L445.880219,347 C447.051695,347 448,347.895333 448,349" id="Fill-118" fill="#7A7A8C" mask="url(#mask-2)"></path>
            <path d="M306,345.32641 C306,346.803547 307.100858,348 308.458536,348 L362.54077,348 C363.899142,348 365,346.803547 365,345.32641 L365,307.674299 C365,306.19787 363.899142,305 362.54077,305 L308.458536,305 C307.100858,305 306,306.19787 306,307.674299 L306,345.32641 Z" id="Fill-119" fill="#9292A8" mask="url(#mask-2)"></path>
            <path d="M277,349 C277,350.104667 277.952955,351 279.128616,351 L362.871384,351 C364.048441,351 365,350.104667 365,349 C365,347.895333 364.048441,347 362.871384,347 L279.128616,347 C277.952955,347 277,347.895333 277,349" id="Fill-120" fill="#7A7A8C" mask="url(#mask-2)"></path>
            <path d="M564,345.32641 C564,346.803547 562.899129,348 561.541435,348 L507.458565,348 C506.100871,348 505,346.803547 505,345.32641 L505,307.674299 C505,306.19787 506.100871,305 507.458565,305 L561.541435,305 C562.899129,305 564,306.19787 564,307.674299 L564,345.32641 Z" id="Fill-121" fill="#D7D7E6" mask="url(#mask-2)"></path>
            <path d="M561.497769,305 L549.223978,305 C535.639023,318.51467 525.622327,341.316025 523,348 L561.497769,348 C562.879577,348 564,346.803547 564,345.32641 L564,307.67359 C564,306.197162 562.879577,305 561.497769,305" id="Fill-122" fill="#9292A8" mask="url(#mask-2)"></path>
            <path d="M577,349 C577,350.104667 576.051695,351 574.880219,351 L506.119781,351 C504.948305,351 504,350.104667 504,349 C504,347.895333 504.948305,347 506.119781,347 L574.880219,347 C576.051695,347 577,347.895333 577,349" id="Fill-123" fill="#7A7A8C" mask="url(#mask-2)"></path>
            <path d="M623.698088,383 C623.698088,383 584.204885,398.325843 586.06361,429.44218 C587.748101,457.641034 614.870015,507 614.870015,507 L626.485827,504.678135 C626.485827,504.678135 613.476145,450.805011 614.405856,436.872427 C614.938314,428.900202 646,417.366809 646,417.366809 L623.698088,383 Z" id="Fill-124" fill="#4C4C59" mask="url(#mask-2)"></path>
            <path d="M586,437.110641 C586.058409,437.451022 586.1196,437.794221 586.183572,438.138125 C600.233116,436.900634 608.537679,437.558844 613.354368,439 C613.352977,438.398168 613.366189,437.838619 613.399565,437.335447 C613.524033,435.446089 615.320817,433.358703 618,431.269908 L597.63807,427 L586,437.110641 Z" id="Fill-125" fill="#231B41" mask="url(#mask-2)"></path>
            <path d="M613.814561,507.494673 C613.814561,507.494673 614.561094,511.891673 612.153255,517.961998 C610.130261,523.059233 601.880262,529.723295 601.027471,533.448599 C600.660335,535.046052 603.980224,536.090836 610.5587,533.069943 C622.061155,527.78686 620.173028,522.942991 622.659879,522.209345 C625.148093,521.474308 625.735238,530.515409 625.735238,530.515409 L627.994588,529.783852 C627.994588,529.783852 628.122643,523.053664 627.132943,517.499815 C626.143243,511.945966 625.131065,505 625.131065,505 L613.814561,507.494673 Z" id="Fill-126" fill="#231B41" mask="url(#mask-2)"></path>
            <path d="M591.698088,389 C591.698088,389 552.204885,404.325843 554.06361,435.44218 C555.748101,463.641034 582.870015,513 582.870015,513 L594.485827,510.678135 C594.485827,510.678135 581.476145,456.805011 582.405856,442.872427 C582.938314,434.900202 614,423.366809 614,423.366809 L591.698088,389 Z" id="Fill-127" fill="#4C4C59" mask="url(#mask-2)"></path>
            <path d="M582.814561,513.494673 C582.814561,513.494673 583.561094,517.891673 581.153255,523.961998 C579.130261,529.059233 570.880262,535.723295 570.027471,539.448599 C569.660335,541.046052 572.980224,542.090836 579.5587,539.069943 C591.061155,533.78686 589.173028,528.942991 591.659879,528.209345 C594.148093,527.474308 594.735238,536.515409 594.735238,536.515409 L596.994588,535.783852 C596.994588,535.783852 597.122643,529.053664 596.132943,523.499815 C595.143243,517.945966 594.131065,511 594.131065,511 L582.814561,513.494673 Z" id="Fill-128" fill="#231B41" mask="url(#mask-2)"></path>
            <path d="M649.43469,432 L646.24419,432.088037 C646.644889,435.194479 658.266544,525.60341 655.519283,532.236915 C652.72468,538.987104 637.013695,524.405131 634.568331,520.036827 C632.148353,515.714638 635.187905,434.127557 635.253088,432.390576 L632.509943,432.466036 C632.509943,432.466036 627.935521,519.104755 631.137685,524.229057 C634.33985,529.35336 656.75363,547.985027 660.412756,540.066603 C664.071883,532.14818 649.43469,432 649.43469,432" id="Fill-129" fill="#777777" mask="url(#mask-2)"></path>
            <path d="M583.43469,432 L580.24419,432.093207 C580.644889,435.369371 592.266544,530.708527 589.519283,537.704632 C586.72468,544.822464 571.013695,529.44536 568.568331,524.839254 C566.148353,520.281143 569.187905,434.243929 569.253088,432.411781 L566.509943,432.491772 C566.509943,432.491772 561.935521,523.856405 565.137685,529.259641 C568.33985,534.663573 590.75363,554.311515 594.412756,545.961122 C598.071883,537.61073 583.43469,432 583.43469,432" id="Fill-130" fill="#777777" mask="url(#mask-2)"></path>
            <path d="M615.405191,282 C615.405191,282 602.353922,282 594.895555,285.24947 C587.437187,288.498941 573.219653,297.554568 559.003516,313.564493 C549.060192,324.762529 531.50118,346.056412 534.29798,359.053598 C537.094781,372.050783 544.553847,368.802009 554.808316,360.910537 C565.062784,353.019066 574.851586,341.87882 574.851586,341.87882 L580.445186,374.835844 L639.410129,376 C639.410129,376 642.206929,370.081745 643.605329,359.985897 L645.003729,349.890049 C645.003729,349.890049 646.751729,348.497519 647.80053,340.8386 C648.84933,333.179681 645.702929,304.980934 639.759729,298.018281 C633.816528,291.055627 628.922127,285.137372 615.405191,282" id="Fill-131" fill="#D7D7E6" mask="url(#mask-2)"></path>
            <path d="M647.807938,341.823529 C648.048966,339.984706 648.05915,336.969176 647.860897,333.355765 C644.85518,322.967294 640,309 640,309 C643.734231,324.176471 645.092134,351 645.092134,351 L645.69029,350.130353 C646.276904,349.028471 647.173798,346.658824 647.807938,341.823529" id="Fill-132" fill="#9292A8" mask="url(#mask-2)"></path>
            <path d="M535,358.306309 C535.043663,358.620012 535.08803,358.933019 535.154228,359.238375 C537.971178,372.222619 545.483983,368.97708 555.812329,361.093466 C566.140676,353.209853 576,342.0807 576,342.0807 C575.881688,340.345943 574.473213,324 574.473213,324 C574.473213,324 552.208746,368.279421 535,358.306309" id="Fill-133" fill="#9292A8" mask="url(#mask-2)"></path>
            <path d="M555.071356,431 L649.151377,431 C649.151377,431 658,430.538126 658,421.753495 L658,381.530194 C658,381.530194 653.34305,369.508975 620.740911,368.121965 C588.138771,366.734954 569.043602,377.368469 569.043602,390.314131 C569.043602,390.314131 550.18107,397.711057 550.18107,409.038771 C550.18107,420.366485 548.551207,431 555.071356,431" id="Fill-134" fill="#D68F54" mask="url(#mask-2)"></path>
            <path d="M598.178519,284 L597.040736,273.565834 C597.040736,273.565834 588.395775,269.624502 586.348177,257.103504 C584.300578,244.582505 591.35319,229.046728 605.68638,233.916005 C620.01957,238.785282 621.157352,252.697503 619.337037,259.653614 C617.516722,266.609724 614.78659,267.073697 614.78659,271.711335 C614.78659,276.348279 614.787273,282.141327 614.787273,282.141327 C614.787273,282.141327 609.326328,281.44989 598.178519,284" id="Fill-135" fill="#FD6062" mask="url(#mask-2)"></path>
            <path d="M590.115358,237.190767 C590.115358,237.190767 587.319585,242.103594 590.580738,247.718254 C593.841891,253.332914 599.199351,256.608366 599.199351,256.608366 C599.199351,256.608366 599.199351,269.006938 604.323421,271.112436 C609.447492,273.217933 616.668567,271.81497 621.093869,264.328523 C625.51917,256.842076 625.495412,247.776506 624.355022,242.337305 C621.559248,229.002488 614.338872,228.300655 614.338872,228.300655 C614.338872,228.300655 595.938896,221.984163 590.115358,237.190767" id="Fill-136" fill="#231B41" mask="url(#mask-2)"></path>
            <path d="M493.698088,383 C493.698088,383 454.204885,398.325843 456.06361,429.44218 C457.748101,457.641034 484.870015,507 484.870015,507 L496.485827,504.678135 C496.485827,504.678135 483.476145,450.805011 484.405856,436.872427 C484.938314,428.900202 516,417.366809 516,417.366809 L493.698088,383 Z" id="Fill-137" fill="#FD6062" mask="url(#mask-2)"></path>
            <path d="M457,437.110641 C457.058409,437.451022 457.1196,437.794221 457.183572,438.138125 C471.233116,436.900634 479.537679,437.558844 484.354368,439 C484.352977,438.398168 484.366189,437.838619 484.399565,437.335447 C484.524033,435.446089 486.320817,433.358703 489,431.269908 L468.63807,427 L457,437.110641 Z" id="Fill-138" fill="#AB2A41" mask="url(#mask-2)"></path>
            <path d="M484.814561,507.494673 C484.814561,507.494673 485.561094,511.891673 483.153255,517.961998 C481.130261,523.059233 472.880262,529.723295 472.027471,533.448599 C471.660335,535.046052 474.980224,536.090836 481.5587,533.069943 C493.061155,527.78686 491.173028,522.942991 493.659879,522.209345 C496.148093,521.474308 496.735238,530.515409 496.735238,530.515409 L498.994588,529.783852 C498.994588,529.783852 499.122643,523.053664 498.132943,517.499815 C497.143243,511.945966 496.131065,505 496.131065,505 L484.814561,507.494673 Z" id="Fill-139" fill="#231B41" mask="url(#mask-2)"></path>
            <path d="M462.698088,389 C462.698088,389 423.204885,404.325843 425.06361,435.44218 C426.748101,463.641034 453.870015,513 453.870015,513 L465.485827,510.678135 C465.485827,510.678135 452.476145,456.805011 453.405856,442.872427 C453.938314,434.900202 485,423.366809 485,423.366809 L462.698088,389 Z" id="Fill-140" fill="#FD6062" mask="url(#mask-2)"></path>
            <path d="M453.814561,513.494673 C453.814561,513.494673 454.561094,517.891673 452.153255,523.961998 C450.130261,529.059233 441.880262,535.723295 441.027471,539.448599 C440.660335,541.046052 443.980224,542.090836 450.5587,539.069943 C462.061155,533.78686 460.173028,528.942991 462.659879,528.209345 C465.148093,527.474308 465.735238,536.515409 465.735238,536.515409 L467.994588,535.783852 C467.994588,535.783852 468.122643,529.053664 467.132943,523.499815 C466.143243,517.945966 465.131065,511 465.131065,511 L453.814561,513.494673 Z" id="Fill-141" fill="#231B41" mask="url(#mask-2)"></path>
            <path d="M520.43469,432 L517.24419,432.088037 C517.644889,435.194479 529.266544,525.60341 526.519283,532.236915 C523.72468,538.987104 508.013695,524.405131 505.568331,520.036827 C503.148353,515.714638 506.187905,434.127557 506.253088,432.390576 L503.509943,432.466036 C503.509943,432.466036 498.935521,519.104755 502.137685,524.229057 C505.33985,529.35336 527.75363,547.985027 531.412756,540.066603 C535.071883,532.14818 520.43469,432 520.43469,432" id="Fill-142" fill="#777777" mask="url(#mask-2)"></path>
            <path d="M454.43469,432 L451.24419,432.093207 C451.644889,435.369371 463.266544,530.708527 460.519283,537.704632 C457.72468,544.822464 442.013695,529.44536 439.568331,524.839254 C437.148353,520.281143 440.187905,434.243929 440.253088,432.411781 L437.509943,432.491772 C437.509943,432.491772 432.935521,523.856405 436.137685,529.259641 C439.33985,534.663573 461.75363,554.311515 465.412756,545.961122 C469.071883,537.61073 454.43469,432 454.43469,432" id="Fill-143" fill="#777777" mask="url(#mask-2)"></path>
            <path d="M486.405191,282 C486.405191,282 473.353922,282 465.895555,285.24947 C458.437187,288.498941 444.219653,297.554568 430.003516,313.564493 C420.060192,324.762529 402.50118,346.056412 405.29798,359.053598 C408.094781,372.050783 415.553847,368.802009 425.808316,360.910537 C436.062784,353.019066 445.851586,341.87882 445.851586,341.87882 L451.445186,374.835844 L510.410129,376 C510.410129,376 513.206929,370.081745 514.605329,359.985897 L516.003729,349.890049 C516.003729,349.890049 517.751729,348.497519 518.80053,340.8386 C519.84933,333.179681 516.702929,304.980934 510.759729,298.018281 C504.816528,291.055627 496.661058,285.129713 486.405191,282" id="Fill-144" fill="#6153CF" mask="url(#mask-2)"></path>
            <path d="M518.806837,341.823529 C519.164593,339.095294 519.017961,333.793412 518.428714,327.760941 C515.056161,318.321882 511,309 511,309 C514.733704,324.176471 516.091415,351 516.091415,351 C516.091415,351 517.788554,349.588235 518.806837,341.823529" id="Fill-145" fill="#131026" mask="url(#mask-2)"></path>
            <path d="M426.071356,431 L520.151377,431 C520.151377,431 529,430.538126 529,421.753495 L529,381.530194 C529,381.530194 524.34305,369.508975 491.740911,368.121965 C459.138771,366.734954 440.043602,377.368469 440.043602,390.314131 C440.043602,390.314131 421.18107,397.711057 421.18107,409.038771 C421.18107,420.366485 419.551207,431 426.071356,431" id="Fill-146" fill="#D68F54" mask="url(#mask-2)"></path>
            <path d="M469.178519,284 L468.040736,273.565834 C468.040736,273.565834 459.395775,269.624502 457.348177,257.103504 C455.300578,244.582505 462.35319,229.046728 476.68638,233.916005 C491.01957,238.785282 492.157352,252.697503 490.337037,259.653614 C488.516722,266.609724 485.78659,267.073697 485.78659,271.711335 C485.78659,276.348279 485.787273,282.141327 485.787273,282.141327 C485.787273,282.141327 480.326328,281.44989 469.178519,284" id="Fill-147" fill="#FD6062" mask="url(#mask-2)"></path>
            <path d="M460.11892,237.322814 C460.11892,237.322814 457.314218,242.217005 460.585787,247.810366 C463.857355,253.403726 469.231925,256.666753 469.231925,256.666753 C469.231925,256.666753 469.231925,269.018292 474.372361,271.115802 C479.512796,273.213313 486.756934,271.815672 491.196369,264.357624 C495.635804,256.899577 494.467938,242.449828 494.467938,242.449828 C494.467938,242.449828 505.480653,236.673285 498.907373,227.534433 C491.196369,216.814058 484.419799,228.466427 484.419799,228.466427 C484.419799,228.466427 465.961057,222.173896 460.11892,237.322814" id="Fill-148" fill="#231B41" mask="url(#mask-2)"></path>
            <path d="M595,249.584699 C595,249.584699 598.133217,261.825137 597.785081,270.918033 C597.436946,280.010929 596.740676,289.803279 596.740676,289.803279 C596.740676,289.803279 606.488461,294 616.932516,294 C629.585837,294 630.509788,288.754098 630.509788,288.754098 C630.509788,288.754098 635.035546,240.142077 616.584381,230" id="Fill-149" fill="#231B41" mask="url(#mask-2)"></path>
            <path d="M82.4310507,406 L51.1799114,498.857118 C51.1799114,498.857118 48.8479875,510 60.9749715,510 L134.671605,510 C134.671605,510 144,509.536178 144,496.535916 C144,483.535655 141.668076,406.464519 141.668076,406.464519 L136.536864,406.464519 L136.536864,494.214715 C136.536864,494.214715 138.985629,504.428559 121.611291,504.428559 C104.81976,504.428559 66.6435127,504.833881 64.7068894,504.428559 C60.2753244,503.500914 55.844459,503.500914 60.5090065,491.428994 C65.1728544,479.357074 88.9608576,406.464519 88.9608576,406.464519 L82.4310507,406 Z" id="Fill-150" fill="#777777" mask="url(#mask-2)"></path>
            <path d="M90.4310507,425 L59.1799114,517.857118 C59.1799114,517.857118 56.8479875,529 68.9749715,529 L142.671605,529 C142.671605,529 152,528.536178 152,515.535916 C152,502.535655 149.668076,425.464519 149.668076,425.464519 L144.536864,425.464519 L144.536864,513.214715 C144.536864,513.214715 146.985629,523.428559 129.611291,523.428559 C112.81976,523.428559 74.6435127,523.833881 72.7068894,523.428559 C68.2753244,522.500914 63.844459,522.500914 68.5090065,510.428994 C73.1728544,498.357074 96.9608576,425.464519 96.9608576,425.464519 L90.4310507,425 Z" id="Fill-151" fill="#777777" mask="url(#mask-2)"></path>
            <polygon id="Fill-152" fill="#E5E5E5" mask="url(#mask-2)" points="143 247.621212 148.294118 241 167 254.939394 166.647059 264"></polygon>
            <path d="M148.277788,241 L143,247.618113 L147.12723,250.484104 L147.691601,250.521026 C147.691601,249.824383 153.555575,246.80513 153.555575,246.80513 L163,252 L148.277788,241 Z" id="Fill-153" fill="#C6C6C6" mask="url(#mask-2)"></path>
            <path d="M90,366.012019 C90,366.012019 96.943278,312.673452 108.746851,286.178477 C120.550423,259.683502 136.172799,243.995688 147.629207,247.481869 C159.085616,250.96805 164.640238,272.233754 164.987402,294.196693 C165.334566,316.159633 158.391288,368.452346 158.391288,368.452346 C158.391288,368.452346 146.587716,376.470562 141.380257,379.608125 C136.172799,382.745688 90,366.012019 90,366.012019" id="Fill-154" fill="#616171" mask="url(#mask-2)"></path>
            <path d="M176,422.950035 L179.771247,501.07023 L200.985836,502 L209,452.245108 C209,452.245108 187.785411,409 186.371105,409 C184.956799,409 176,422.950035 176,422.950035" id="Fill-155" fill="#231B41" mask="url(#mask-2)"></path>
            <path d="M176,422.950035 L179.771247,501.07023 L200.985836,502 L209,452.245108 C209,452.245108 187.785411,409 186.371105,409 C184.956799,409 176,422.950035 176,422.950035" id="Fill-156" fill="#231B41" mask="url(#mask-2)"></path>
            <path d="M158.6669,368 C158.6669,368 206.7338,386.035638 219.3338,410.238845 C231.9338,434.442052 245,497.742373 245,497.742373 L228.2,501 C228.2,501 214.6669,481.91642 202.5338,459.110236 C190.4,436.304052 183.4,423.271449 181.0669,423.271449 C178.7338,423.271449 147.0007,417.686845 133.9338,409.773869 C120.8669,401.860892 105,391.621638 105,391.621638 L158.6669,368 Z" id="Fill-157" fill="#231B41" mask="url(#mask-2)"></path>
            <path d="M232.234938,520.448993 L242.112191,520.448993 L242.582772,518.561887 C242.582772,518.561887 248.696792,521.864677 253.635419,522.572518 C258.574046,523.28036 268.92188,523.044649 268.92188,522.336807 C268.92188,521.628965 270.332917,522.100388 261.161181,516.909784 C251.989445,511.719181 246.580238,507 246.580238,507 L232,507.707842 L232.234938,520.448993 Z" id="Fill-158" fill="#231B41" mask="url(#mask-2)"></path>
            <polygon id="Fill-159" fill="#FD6062" mask="url(#mask-2)" points="231 500.421127 232.333333 508 245 507.290147 242.778 499"></polygon>
            <path d="M163,325.49186 C163.698279,326.187501 176.732352,338.709025 187.672287,344.969786 C198.612222,351.230548 216.534248,350.9989 216.534248,350.9989 L217,339.404665 C217,339.404665 192.909379,327.230961 182.086056,310.883416 C176.318971,302.173304 163.465752,287 163.465752,287 L163,325.49186 Z" id="Fill-160" fill="#4F4F5B" mask="url(#mask-2)"></path>
            <path d="M166.928644,425 L72.8486232,425 C72.8486232,425 64,424.538471 64,415.760403 L64,375.567151 C64,375.567151 68.6569495,363.554912 101.259089,362.168938 C133.861229,360.782964 152.956398,367.713528 152.956398,390.812867 C152.956398,390.812867 171.81893,389.657658 171.81893,400.976909 C171.81893,412.29616 173.448793,425 166.928644,425" id="Fill-161" fill="#D68F54" mask="url(#mask-2)"></path>
            <polygon id="Fill-162" fill="#2D1C1F" mask="url(#mask-2)" points="226 534 236 534 236 367 226 367"></polygon>
            <path d="M182.234938,519.448993 L192.112191,519.448993 L192.582772,517.561887 C192.582772,517.561887 198.696792,520.864677 203.635419,521.572518 C208.574046,522.28036 218.92188,522.044649 218.92188,521.336807 C218.92188,520.628965 220.332917,521.100388 211.161181,515.909784 C201.989445,510.719181 196.580238,506 196.580238,506 L182,506.707842 L182.234938,519.448993 Z" id="Fill-163" fill="#231B41" mask="url(#mask-2)"></path>
            <polygon id="Fill-164" fill="#FD6062" mask="url(#mask-2)" points="182 501 182 507 194 506.00025 193.320768 501.50025"></polygon>
            <path d="M217.29435,343.056338 C217.29435,343.056338 224.882504,342.549296 229.823628,344.577465 C234.764751,346.605634 239,351 239,351 L217,350.774873 L217.29435,343.056338 Z" id="Fill-165" fill="#FD6062" mask="url(#mask-2)"></path>
            <path d="M149.045779,240.739347 L153.520967,231.730825 C153.520967,231.730825 145.489037,219.02673 145.029814,212.097097 C144.57059,205.167465 149.390024,194.542259 161.32363,190.615236 C173.257925,186.688214 178.765849,190.615236 180.601364,195.003773 C182.437568,199.392309 181.978345,202.164162 181.978345,202.164162 C181.978345,202.164162 183.642427,213.020817 184.330917,214.060262 C185.019408,215.099707 188.978228,220.470172 187.77337,221.682858 C186.568512,222.895543 184.847285,223.242025 184.847285,223.761748 C184.847285,224.28147 185.707898,236.581568 180.199974,239.006939 C174.69205,241.43231 169.700494,240.566106 169.700494,240.566106 L164.020447,252 C164.020447,252 150.767005,242.991478 149.045779,240.739347" id="Fill-166" fill="#FD6062" mask="url(#mask-2)"></path>
            <path d="M163.75,237.199968 C162.5831,235.371136 163.2831,226 163.2831,226 C163.2831,226 157.7202,228.554331 152.0817,231.20192 C152.375,231.673014 152.55,231.942504 152.55,231.942504 L148,240.856947 C149.75,243.085558 163.225,252 163.225,252 L169,240.685515 C169,240.685515 164.9169,239.028801 163.75,237.199968" id="Fill-167" fill="#AB2A41" mask="url(#mask-2)"></path>
            <path d="M180.947612,202.086609 C180.947612,202.086609 181.418872,199.331164 179.534538,194.968605 C177.65091,190.605357 171.998614,186.702268 159.751501,190.605357 C147.505094,194.509134 142.559335,205.071446 143.030595,211.96006 C143.501855,218.848674 151.744316,231.478259 151.744316,231.478259 C151.744316,231.478259 157.396613,232.855982 159.692858,231.133828 C161.989103,229.411675 163.048909,224.072999 162.69564,222.523061 C162.342372,220.973122 161.812469,216.839954 164.285349,215.634447 C166.758228,214.428939 169.231108,219.078754 169.231108,219.078754 L171.880622,217.873246 C171.880622,217.873246 168.701205,211.156848 170.997451,206.679248 C173.293696,202.201649 180.947612,202.086609 180.947612,202.086609" id="Fill-168" fill="#231B41" mask="url(#mask-2)"></path>
            <path d="M184,228 L177,228.47965 C177,228.47965 177.171099,230.497814 178.882088,231.170535 C180.349433,231.74773 182.817364,231.95291 183.492863,232 C183.776887,230.634376 183.927454,229.243189 184,228" id="Fill-169" fill="#FFFFFF" mask="url(#mask-2)"></path>
            <path d="M231.147293,291 C242.880638,287.322214 254.057356,282.330983 263.591531,274.446113 C265.7227,272.684584 268.638335,270.591194 270.02079,268.048319 C270.379023,267.390197 269.621196,266.691466 268.994464,267.102443 C265.714988,269.257445 261.411991,272.327518 261.411991,272.327518 C260.464181,270.988168 271.727828,265.793899 272.573986,261.822758 C273.02686,259.695762 260.161331,270.047192 258.964652,269.428277 C258.469015,269.172029 274.019536,259.932406 272.946941,258.789793 C272.046102,257.829914 256.402342,267.643644 256.121224,266.836393 C255.731445,265.715484 269.903716,259.395406 268.200884,258.038553 C267.328788,257.343323 250.411235,266.272088 248.531039,266.993923 C246.151701,267.530223 253.439737,259.750372 250.331316,259.63065 C246.11034,259.468219 238.710137,273.20058 237.953011,273.508638 C237.079513,273.862904 229,280.129773 229,280.129773 L231.147293,291 Z" id="Fill-170" fill="#FD6062" mask="url(#mask-2)"></path>
            <path d="M147,288.130841 C147,288.130841 175.779792,317.298054 189.639182,317.988046 C203.498572,318.677346 241,289.326735 241,289.326735 L232.560697,276.088163 L194.469509,293.852169 C194.469509,293.852169 167.608183,261.727057 153.317975,251" id="Fill-171" fill="#616171" mask="url(#mask-2)"></path>
            <polygon id="Fill-172" fill="#E5E5E5" mask="url(#mask-2)" points="233 277.260664 238.090264 274 245 286.297419 240.743926 289"></polygon>
            <path d="M235.394534,278.468201 L239.004205,275.68237 L238.174492,274.178701 L237.899089,274 L233,277.194193 L240.650315,289 L241,288.774416 C239.029432,285.039364 235.394534,278.468201 235.394534,278.468201" id="Fill-173" fill="#C6C6C6" mask="url(#mask-2)"></path>
            <polyline id="Fill-174" fill="#E5E5E5" mask="url(#mask-2)" points="217.666667 340.200216 221 340.920202 221 350.759525 217 351 217.444667 339"></polyline>
            <path d="M505,176.648704 C503.703177,174.866631 502.13279,173.297572 500.351486,172 L488,189 L505,176.648704 Z" id="Fill-175" fill="#FFB4A9" mask="url(#mask-2)"></path>
            <path d="M500,171.990283 C498.285618,170.705151 496.369026,169.688887 494.309739,169 L488,189 L500,171.990283 Z" id="Fill-176" fill="#FFB4A9" mask="url(#mask-2)"></path>
            <path d="M509,189 C509,186.906109 508.639634,184.890032 507.976645,183 L488,189 L509,189 Z" id="Fill-177" fill="#FFB4A9" mask="url(#mask-2)"></path>
            <path d="M507.976645,196 C508.639634,194.110611 509,192.094534 509,190 L488,190 L507.976645,196 Z" id="Fill-178" fill="#0288BB" mask="url(#mask-2)"></path>
            <path d="M495,169.024085 C493.110611,168.360378 491.095177,168 489,168 L489,189 L495,169.024085 Z" id="Fill-179" fill="#FFB4A9" mask="url(#mask-2)"></path>
            <path d="M508,182.689906 C507.310465,180.630502 506.294271,178.714479 505.009925,177 L488,189 L508,182.689906 Z" id="Fill-180" fill="#FFB4A9" mask="url(#mask-2)"></path>
            <path d="M494.309739,209 C496.369026,208.311137 498.285618,207.294908 500,206.009821 L488,189 L494.309739,209 Z" id="Fill-181" fill="#0288BB" mask="url(#mask-2)"></path>
            <path d="M489,210 L489,210 C491.095177,210 493.111254,209.639634 495,208.975949 L489,189 L489,210 Z" id="Fill-182" fill="#0288BB" mask="url(#mask-2)"></path>
            <path d="M471,201.351296 C472.296929,203.133369 473.867445,204.703124 475.648894,206 L488,189 L471,201.351296 Z" id="Fill-183" fill="#0288BB" mask="url(#mask-2)"></path>
            <path d="M476,206.009821 C477.714576,207.294908 479.63003,208.311137 481.690903,209 L488,189 L476,206.009821 Z" id="Fill-184" fill="#0288BB" mask="url(#mask-2)"></path>
            <path d="M482,208.975949 C483.889794,209.639634 485.90566,210 488,210 L488,189 L482,208.975949 Z" id="Fill-185" fill="#0288BB" mask="url(#mask-2)"></path>
            <path d="M488,189 L505.009925,201 C506.294271,199.285521 507.310465,197.369498 508,195.310094 L488,189 Z" id="Fill-186" fill="#0288BB" mask="url(#mask-2)"></path>
            <path d="M500.351486,206 C502.13279,204.703124 503.702481,203.133369 505,201.351296 L488,189 L500.351486,206 Z" id="Fill-187" fill="#0288BB" mask="url(#mask-2)"></path>
            <path d="M475.648894,172 C473.867445,173.296929 472.297625,174.866749 471,176.648894 L488,189 L475.648894,172 Z" id="Fill-188" fill="#E8E8EA" mask="url(#mask-2)"></path>
            <path d="M468,195.310094 C468.68819,197.369498 469.704454,199.285521 470.990283,201 L488,189 L468,195.310094 Z" id="Fill-189" fill="#0288BB" mask="url(#mask-2)"></path>
            <path d="M488,168 C485.90566,168 483.889151,168.360366 482,169.024051 L488,189 L488,168 Z" id="Fill-190" fill="#FFB4A9" mask="url(#mask-2)"></path>
            <path d="M481.690903,169 C479.63003,169.688887 477.714576,170.705151 476,171.990283 L488,189 L481.690903,169 Z" id="Fill-191" fill="#E8E8EA" mask="url(#mask-2)"></path>
            <path d="M470.990283,177 C469.704454,178.714479 468.68819,180.630502 468,182.689906 L488,189 L470.990283,177 Z" id="Fill-192" fill="#E8E8EA" mask="url(#mask-2)"></path>
            <path d="M467,190 C467,192.094534 467.360366,194.110611 468.024747,196 L488,190 L467,190 Z" id="Fill-193" fill="#E8E8EA" mask="url(#mask-2)"></path>
            <path d="M468.024747,183 C467.360366,184.889389 467,186.905466 467,189 L488,189 L468.024747,183 Z" id="Fill-194" fill="#E8E8EA" mask="url(#mask-2)"></path>
            <path d="M476,144.989366 C479.368279,147.51123 483.515049,149 488,149 L488,128 L476,144.989366 Z" id="Fill-195" fill="#FFB4A9" mask="url(#mask-2)"></path>
            <path d="M488,107 C483.515049,107 479.368279,108.48877 476,111.010634 L488,128 L488,107 Z" id="Fill-196" fill="#A1CDD3" mask="url(#mask-2)"></path>
            <path d="M508,121.50518 C506.615358,117.244216 503.906669,113.581221 500.358698,111 L488,128 L508,121.50518 Z" id="Fill-197" fill="#A1CDD3" mask="url(#mask-2)"></path>
            <path d="M468.024747,121 C467.360366,123.046838 467,125.230922 467,127.5 C467,129.768382 467.360366,131.952465 468.024747,134 L488,127.5 L468.024747,121 Z" id="Fill-198" fill="#E8E8EA" mask="url(#mask-2)"></path>
            <path d="M508,133.49482 L488,127 L500.358698,144 C503.906669,141.418779 506.615358,137.755784 508,133.49482" id="Fill-199" fill="#0288BB" mask="url(#mask-2)"></path>
            <path d="M500,111.010767 C496.632101,108.488819 492.485798,107 488,107 L488,128 L500,111.010767 Z" id="Fill-200" fill="#A1CDD3" mask="url(#mask-2)"></path>
            <path d="M475.641835,111 C472.093616,113.581327 469.384042,117.244472 468,121.50561 L488,128 L475.641835,111 Z" id="Fill-201" fill="#E8E8EA" mask="url(#mask-2)"></path>
            <path d="M468,133.49482 C469.383346,137.755784 472.093616,141.418779 475.641835,144 L488,127 L468,133.49482 Z" id="Fill-202" fill="#E8E8EA" mask="url(#mask-2)"></path>
            <path d="M488,149 L488,149 C492.485798,149 496.632101,147.51123 500,144.989366 L488,128 L488,149 Z" id="Fill-203" fill="#0288BB" mask="url(#mask-2)"></path>
            <path d="M507.976645,134 C508.639634,131.953162 509,129.769078 509,127.5 C509,125.231618 508.639634,123.047535 507.976645,121 L488,127.5 L507.976645,134 Z" id="Fill-204" fill="#A1CDD3" mask="url(#mask-2)"></path>
            <polygon id="Fill-205" fill="#A1CDD3" mask="url(#mask-2)" points="529 199 532 199 532 167 529 167"></polygon>
            <polygon id="Fill-206" fill="#D3D4D6" mask="url(#mask-2)" points="539 199 542 199 542 175 539 175"></polygon>
            <polygon id="Fill-207" fill="#A1CDD3" mask="url(#mask-2)" points="549 199 552 199 552 160 549 160"></polygon>
            <polygon id="Fill-208" fill="#79BBDE" mask="url(#mask-2)" points="565 199 568 199 568 175 565 175"></polygon>
            <polygon id="Fill-209" fill="#A1CDD3" mask="url(#mask-2)" points="575 199 578 199 578 160 575 160"></polygon>
            <polygon id="Fill-210" fill="#79BBDE" mask="url(#mask-2)" points="586 199 589 199 589 173 586 173"></polygon>
            <polygon id="Fill-211" fill="#FFB4A9" mask="url(#mask-2)" points="602 199 605 199 605 148 602 148"></polygon>
            <polygon id="Fill-212" fill="#A1CDD3" mask="url(#mask-2)" points="612 199 615 199 615 167 612 167"></polygon>
            <polygon id="Fill-213" fill="#79BBDE" mask="url(#mask-2)" points="622 199 625 199 625 175 622 175"></polygon>
            <polygon id="Fill-214" fill="#231B41" mask="url(#mask-2)" points="273 333 252 331.741089 254.45 306 255.85 329.338587"></polygon>
            <path d="M333,325.5 C333,323.567223 334.567223,322 336.5,322 C338.432777,322 340,323.567223 340,325.5 C340,327.432777 338.432777,329 336.5,329 C334.567223,329 333,327.432777 333,325.5" id="Fill-215" fill="#FFFFFF" mask="url(#mask-2)"></path>
            <path d="M467,273 C467.172807,273.059997 467.609144,273.235488 468.172207,273.467977 C469.952838,274.20144 473,275.499625 473,275.499625 L468.679827,278" id="Fill-216" fill="#AB2A41" mask="url(#mask-2)"></path>
            <polygon id="Fill-217" fill="#231B41" mask="url(#mask-2)" points="164 303.3 143 283 163.65 311"></polygon>
            <path d="M408,177.103099 C408,177.103099 410.822438,178.440298 413.164505,177.886527 C415.506572,177.332756 416,177 416,177 C416,177 415.239928,179.623157 412.58105,179.984312 C411.112447,180.183719 408.343613,178.440915 408,177.103099" id="Fill-218" fill="#FFFFFF" mask="url(#mask-2)"></path>
        </g>
    </g>
</svg>